<svg xmlns="http://www.w3.org/2000/svg" viewBox="0 0 64 64"><title>Analytics</title><g id="Analytics"><path d="M38,13h5.58L37,6.42v5.51A1,1,0,0,0,38,13Z"/><path d="M58.7,54.6l-5-5-1.41,1.41L57.29,56a1,1,0,0,0,1.41,0,1,1,0,0,0,0-1.41Z"/><path d="M51.78,33.22A11,11,0,0,0,34,45.59s0,0,0,0a11,11,0,0,0,11.77,6.21h0a11,11,0,0,0,6-18.63ZM50.36,47.36A9,9,0,1,1,53,41,8.95,8.95,0,0,1,50.36,47.36Z"/><path d="M49,36.05A7,7,0,1,0,49,46,7,7,0,0,0,49,36.05Z"/><path d="M37.88,52.47A1,1,0,0,1,37,53H13a1,1,0,0,1,0-2H35.71a11.34,11.34,0,0,1-.9-.81A13,13,0,0,1,32.47,47H13a1,1,0,0,1,0-2H31.65A12.68,12.68,0,0,1,31,41H13a1,1,0,0,1,0-2H31.16A13,13,0,0,1,45,28.05V15H38a3,3,0,0,1-3-3.07V5H6a1,1,0,0,0-1,.87V58.13A1,1,0,0,0,6,59H44a1,1,0,0,0,1-1V54c-.33,0-.67,0-1,0A13,13,0,0,1,37.88,52.47ZM12.29,33.29l9-9a1,1,0,0,1,1.42,0l3.79,3.8L34.58,20H33a1,1,0,0,1,0-2h4a.69.69,0,0,1,.25,0,.37.37,0,0,1,.14,0,.94.94,0,0,1,.53.53.37.37,0,0,1,0,.14A.69.69,0,0,1,38,19v4a1,1,0,0,1-2,0V21.42l-8.79,8.79a1,1,0,0,1-1.42,0L22,26.41l-8.29,8.3a1,1,0,0,1-1.42,0A1,1,0,0,1,12.29,33.29Z"/></g></svg>